<mxfile host="app.diagrams.net" agent="Mozilla/5.0 (Windows NT 10.0; Win64; x64) AppleWebKit/537.36 (KHTML, like Gecko) Chrome/135.0.0.0 Safari/537.36" version="26.2.12">
  <diagram name="第 1 页" id="7Ecn0fYSg-wrHsKwRh-P">
    <mxGraphModel dx="743" dy="494" grid="1" gridSize="10" guides="1" tooltips="1" connect="1" arrows="1" fold="1" page="1" pageScale="1" pageWidth="827" pageHeight="1169" math="0" shadow="0">
      <root>
        <mxCell id="0" />
        <mxCell id="1" parent="0" />
        <mxCell id="2s9XO_QyMvWbHIVdLMjh-2" style="edgeStyle=orthogonalEdgeStyle;rounded=0;orthogonalLoop=1;jettySize=auto;html=1;exitX=0.5;exitY=0;exitDx=0;exitDy=0;" edge="1" parent="1" source="2s9XO_QyMvWbHIVdLMjh-1" target="2s9XO_QyMvWbHIVdLMjh-3">
          <mxGeometry relative="1" as="geometry">
            <mxPoint x="332" y="420" as="targetPoint" />
          </mxGeometry>
        </mxCell>
        <mxCell id="2s9XO_QyMvWbHIVdLMjh-16" style="edgeStyle=orthogonalEdgeStyle;rounded=0;orthogonalLoop=1;jettySize=auto;html=1;exitX=1;exitY=0;exitDx=0;exitDy=0;" edge="1" parent="1" source="2s9XO_QyMvWbHIVdLMjh-1" target="2s9XO_QyMvWbHIVdLMjh-14">
          <mxGeometry relative="1" as="geometry" />
        </mxCell>
        <mxCell id="2s9XO_QyMvWbHIVdLMjh-17" style="edgeStyle=orthogonalEdgeStyle;rounded=0;orthogonalLoop=1;jettySize=auto;html=1;exitX=1;exitY=0.5;exitDx=0;exitDy=0;" edge="1" parent="1" source="2s9XO_QyMvWbHIVdLMjh-1" target="2s9XO_QyMvWbHIVdLMjh-9">
          <mxGeometry relative="1" as="geometry" />
        </mxCell>
        <mxCell id="2s9XO_QyMvWbHIVdLMjh-18" style="edgeStyle=orthogonalEdgeStyle;rounded=0;orthogonalLoop=1;jettySize=auto;html=1;exitX=0;exitY=0.5;exitDx=0;exitDy=0;" edge="1" parent="1" source="2s9XO_QyMvWbHIVdLMjh-1" target="2s9XO_QyMvWbHIVdLMjh-6">
          <mxGeometry relative="1" as="geometry" />
        </mxCell>
        <mxCell id="2s9XO_QyMvWbHIVdLMjh-19" style="edgeStyle=orthogonalEdgeStyle;rounded=0;orthogonalLoop=1;jettySize=auto;html=1;exitX=0;exitY=0;exitDx=0;exitDy=0;entryX=1;entryY=1;entryDx=0;entryDy=0;" edge="1" parent="1" source="2s9XO_QyMvWbHIVdLMjh-1" target="2s9XO_QyMvWbHIVdLMjh-5">
          <mxGeometry relative="1" as="geometry" />
        </mxCell>
        <mxCell id="2s9XO_QyMvWbHIVdLMjh-21" style="edgeStyle=orthogonalEdgeStyle;rounded=0;orthogonalLoop=1;jettySize=auto;html=1;exitX=1;exitY=1;exitDx=0;exitDy=0;entryX=0;entryY=0.5;entryDx=0;entryDy=0;" edge="1" parent="1" source="2s9XO_QyMvWbHIVdLMjh-1" target="2s9XO_QyMvWbHIVdLMjh-10">
          <mxGeometry relative="1" as="geometry" />
        </mxCell>
        <mxCell id="2s9XO_QyMvWbHIVdLMjh-22" style="edgeStyle=orthogonalEdgeStyle;rounded=0;orthogonalLoop=1;jettySize=auto;html=1;exitX=0;exitY=1;exitDx=0;exitDy=0;entryX=1;entryY=0.5;entryDx=0;entryDy=0;" edge="1" parent="1" source="2s9XO_QyMvWbHIVdLMjh-1" target="2s9XO_QyMvWbHIVdLMjh-7">
          <mxGeometry relative="1" as="geometry" />
        </mxCell>
        <mxCell id="2s9XO_QyMvWbHIVdLMjh-23" style="edgeStyle=orthogonalEdgeStyle;rounded=0;orthogonalLoop=1;jettySize=auto;html=1;exitX=0.25;exitY=1;exitDx=0;exitDy=0;entryX=1;entryY=0.5;entryDx=0;entryDy=0;" edge="1" parent="1" source="2s9XO_QyMvWbHIVdLMjh-1" target="2s9XO_QyMvWbHIVdLMjh-12">
          <mxGeometry relative="1" as="geometry" />
        </mxCell>
        <mxCell id="2s9XO_QyMvWbHIVdLMjh-24" style="edgeStyle=orthogonalEdgeStyle;rounded=0;orthogonalLoop=1;jettySize=auto;html=1;exitX=0.75;exitY=1;exitDx=0;exitDy=0;entryX=0;entryY=0.5;entryDx=0;entryDy=0;" edge="1" parent="1" source="2s9XO_QyMvWbHIVdLMjh-1" target="2s9XO_QyMvWbHIVdLMjh-13">
          <mxGeometry relative="1" as="geometry" />
        </mxCell>
        <mxCell id="2s9XO_QyMvWbHIVdLMjh-1" value="用户信息" style="rounded=0;whiteSpace=wrap;html=1;" vertex="1" parent="1">
          <mxGeometry x="294" y="480" width="76" height="40" as="geometry" />
        </mxCell>
        <mxCell id="2s9XO_QyMvWbHIVdLMjh-3" value="用户ID" style="ellipse;whiteSpace=wrap;html=1;" vertex="1" parent="1">
          <mxGeometry x="293" y="370" width="78" height="30" as="geometry" />
        </mxCell>
        <mxCell id="2s9XO_QyMvWbHIVdLMjh-5" value="密码（加密）" style="ellipse;whiteSpace=wrap;html=1;" vertex="1" parent="1">
          <mxGeometry x="160" y="390" width="78" height="30" as="geometry" />
        </mxCell>
        <mxCell id="2s9XO_QyMvWbHIVdLMjh-6" value="最后登录时间" style="ellipse;whiteSpace=wrap;html=1;" vertex="1" parent="1">
          <mxGeometry x="140" y="485" width="78" height="30" as="geometry" />
        </mxCell>
        <mxCell id="2s9XO_QyMvWbHIVdLMjh-7" value="是否超级管理员" style="ellipse;whiteSpace=wrap;html=1;" vertex="1" parent="1">
          <mxGeometry x="146" y="540" width="92" height="50" as="geometry" />
        </mxCell>
        <mxCell id="2s9XO_QyMvWbHIVdLMjh-9" value="邮箱" style="ellipse;whiteSpace=wrap;html=1;" vertex="1" parent="1">
          <mxGeometry x="460" y="485" width="78" height="30" as="geometry" />
        </mxCell>
        <mxCell id="2s9XO_QyMvWbHIVdLMjh-10" value="后台管理员" style="ellipse;whiteSpace=wrap;html=1;" vertex="1" parent="1">
          <mxGeometry x="430" y="540" width="78" height="30" as="geometry" />
        </mxCell>
        <mxCell id="2s9XO_QyMvWbHIVdLMjh-12" value="注册时间" style="ellipse;whiteSpace=wrap;html=1;" vertex="1" parent="1">
          <mxGeometry x="215" y="600" width="78" height="30" as="geometry" />
        </mxCell>
        <mxCell id="2s9XO_QyMvWbHIVdLMjh-13" value="是否激活" style="ellipse;whiteSpace=wrap;html=1;" vertex="1" parent="1">
          <mxGeometry x="375" y="600" width="78" height="30" as="geometry" />
        </mxCell>
        <mxCell id="2s9XO_QyMvWbHIVdLMjh-14" value="用户名" style="ellipse;whiteSpace=wrap;html=1;" vertex="1" parent="1">
          <mxGeometry x="430" y="400" width="78" height="30" as="geometry" />
        </mxCell>
      </root>
    </mxGraphModel>
  </diagram>
</mxfile>
